<svg width="78" height="78" xmlns="http://www.w3.org/2000/svg" xmlns:xlink="http://www.w3.org/1999/xlink" xml:space="preserve" overflow="hidden"><g transform="translate(-505 -454)"><path d="M554.156 470.656C554.156 476.265 549.609 480.812 544 480.812 538.391 480.812 533.844 476.265 533.844 470.656 533.844 465.047 538.391 460.5 544 460.5 549.609 460.5 554.156 465.047 554.156 470.656Z"/><path d="M551.312 504.781C551.312 504.862 551.312 504.944 551.312 505.025 548.469 505.269 546.356 507.625 546.438 510.469 546.438 511.281 546.681 512.094 547.088 512.744 546.194 513.069 545.056 513.231 543.838 513.231 542.537 513.231 541.481 513.069 540.669 512.744 541.888 510.956 541.888 508.519 540.588 506.65 539.612 505.35 538.231 504.538 536.688 504.375L536.688 502.75 551.312 502.75 551.312 504.781ZM566.912 489.913 552.938 482.6C552.612 482.519 552.287 482.438 551.963 482.438L536.688 482.438C536.281 482.438 535.956 482.519 535.55 482.6L520.925 490.725C519.219 491.375 518.406 493.244 518.975 494.869 519.463 496.25 520.763 497.062 522.062 497.062 522.469 497.062 522.794 496.981 523.2 496.9L533.438 491.538C533.438 491.538 533.438 504.944 533.438 505.188 533.275 505.269 526.775 509.819 526.775 509.819 525.394 510.794 524.987 512.744 525.881 514.206L531.569 523.144C532.544 524.688 534.575 525.094 536.037 524.119 537.5 523.144 537.987 521.112 537.013 519.65L534.25 515.181 536.037 515.181C536.606 515.181 537.175 515.1 537.744 514.938 539.206 515.912 541.156 516.481 543.756 516.481 546.194 516.481 548.144 515.912 549.688 515.1 550.338 515.425 551.15 515.506 551.963 515.506L553.425 515.425 550.5 519.487C549.444 520.95 549.769 522.981 551.231 524.037 552.694 525.094 554.725 524.769 555.781 523.306L562.281 514.369C562.362 514.287 562.444 514.206 562.444 514.044 563.338 512.5 562.769 510.469 561.225 509.575L554.562 505.837C554.562 505.513 554.562 491.212 554.562 491.212L564.963 496.169C565.287 496.25 565.612 496.331 565.938 496.331 567.319 496.331 568.619 495.438 569.025 494.056 569.594 492.269 568.619 490.481 566.912 489.913Z"/></g></svg>