<svg width="116" height="116" xmlns="http://www.w3.org/2000/svg" xmlns:xlink="http://www.w3.org/1999/xlink" xml:space="preserve" overflow="hidden"><g transform="translate(-1003 -412)"><path d="M1086.98 424.083C1086.98 418.742 1083.2 414.417 1078.52 414.417 1073.84 414.417 1070.06 418.742 1070.06 424.083 1070.06 428.917 1073.94 434.765 1077.31 435.937 1077.31 436.013 1077.31 436.09 1077.31 436.167 1077.24 439.141 1077.65 442.108 1078.52 444.951 1079.36 447.579 1079.77 450.325 1079.73 453.083 1079.77 455.842 1079.36 458.588 1078.52 461.215 1078.27 462.085 1078.01 462.98 1077.81 464.031 1077.07 464.161 1076.38 464.525 1075.86 465.07L1062.99 478.458 1054.69 478.458C1049.03 478.881 1044.24 483.376 1043.09 486.312 1042.8 487.074 1039.32 495.278 1037.05 500.607 1036.27 502.449 1037.13 504.574 1038.97 505.356 1039.42 505.551 1039.9 505.65 1040.39 505.646 1041.84 505.647 1043.15 504.781 1043.72 503.447L1047.71 494.082 1047.71 525.583 1054.96 525.583 1054.96 503.833 1058.58 503.833 1058.58 525.583 1065.83 525.583 1065.83 485.962 1081.13 470.097C1082.52 468.655 1082.47 466.362 1081.03 464.973 1080.8 464.749 1080.53 464.558 1080.24 464.405 1080.43 463.499 1080.66 462.69 1080.89 461.868 1081.76 459.024 1082.17 456.058 1082.1 453.083 1082.17 450.109 1081.76 447.142 1080.89 444.299 1080.05 441.671 1079.64 438.925 1079.68 436.167 1079.69 436.09 1079.69 436.013 1079.68 435.937 1083.1 434.765 1086.98 428.917 1086.98 424.083Z"/><path d="M1065.83 466.979C1065.83 471.984 1061.78 476.042 1056.77 476.042 1051.77 476.042 1047.71 471.984 1047.71 466.979 1047.71 461.974 1051.77 457.917 1056.77 457.917 1061.78 457.917 1065.83 461.974 1065.83 466.979Z"/></g></svg>