<svg width="77" height="77" xmlns="http://www.w3.org/2000/svg" xmlns:xlink="http://www.w3.org/1999/xlink" xml:space="preserve" overflow="hidden"><g transform="translate(-769 -459)"><path d="M839.583 486.672C839.583 492.209 835.095 496.698 829.557 496.698 824.02 496.698 819.531 492.209 819.531 486.672 819.531 481.135 824.02 476.646 829.557 476.646 835.095 476.646 839.583 481.135 839.583 486.672Z"/><path d="M783.438 506.323C783.438 507.606 783.919 508.729 784.721 509.611 782.796 508.649 781.833 506.965 781.833 503.917 781.833 497.981 787.287 497.179 794.667 496.698L794.667 507.767 793.062 504.719C792.02 502.633 790.496 501.51 788.25 501.51 785.603 501.51 783.438 503.676 783.438 506.323ZM776.219 515.948C776.219 517.713 777.662 519.156 779.427 519.156L795.469 519.156C796.672 519.156 797.875 518.434 798.356 517.311 798.918 516.189 798.597 514.905 797.955 513.943L796.832 511.938 796.191 510.734 815.681 505.36 816.403 509.291C816.483 509.932 816.804 510.574 817.285 510.975L824.504 518.194C825.146 518.835 825.948 519.156 826.75 519.156 827.552 519.156 828.354 518.835 828.996 518.194 830.279 516.91 830.279 514.905 828.996 513.622L822.499 507.125 820.253 494.452C820.013 492.928 818.649 491.805 817.125 491.805L794.667 493.409C788.41 493.81 778.625 494.452 778.625 503.836 778.625 508.89 780.871 511.376 783.999 512.659L779.427 512.659C777.662 512.74 776.219 514.183 776.219 515.948Z"/></g></svg>